<?xml version="1.0" standalone="no"?>
<!DOCTYPE svg PUBLIC "-//W3C//DTD SVG 20010904//EN"
 "http://www.w3.org/TR/2001/REC-SVG-20010904/DTD/svg10.dtd">
<svg version="1.0" xmlns="http://www.w3.org/2000/svg"
 width="475.000000pt" height="85.000000pt" viewBox="0 0 475.000000 85.000000"
 preserveAspectRatio="xMidYMid meet">

<g transform="translate(0.000000,85.000000) scale(0.100000,-0.100000)"
fill="#000000" stroke="none">
<path d="M2057 717 l-317 -110 19 -21 c34 -37 41 -74 41 -227 l0 -149 -35 0
-35 0 0 139 c0 76 -5 152 -11 169 -20 58 -99 66 -159 15 l-30 -25 0 -149 0
-149 -35 0 -35 0 0 149 0 150 -52 -18 -53 -18 -3 -131 -3 -132 -34 0 -34 0 -3
119 -3 118 -97 -35 -98 -35 0 -83 0 -84 -35 0 -35 0 0 70 c0 39 -3 70 -7 70
-5 0 -36 -10 -70 -22 -59 -20 -62 -23 -47 -40 14 -15 15 -20 3 -34 -8 -10 -28
-23 -46 -31 -37 -15 -140 -17 -175 -4 -19 7 -87 -13 -323 -94 l-300 -104 2335
0 2335 0 -274 95 c-215 74 -285 94 -328 94 -61 0 -123 24 -130 50 -3 10 -20
22 -40 28 -33 10 -37 9 -61 -20 -14 -17 -41 -37 -59 -44 -42 -18 -134 -18
-176 0 -61 25 -107 102 -107 178 0 20 -7 28 -31 37 -18 6 -33 11 -34 11 -1 0
0 -22 3 -49 6 -69 -25 -133 -82 -166 -35 -20 -56 -25 -112 -25 -58 0 -77 5
-121 30 -28 16 -54 33 -56 38 -3 4 3 18 13 32 l18 24 50 -27 c89 -48 189 -31
211 36 23 68 -7 100 -129 142 -41 14 -88 38 -105 54 -20 19 -77 44 -176 79
l-146 50 -1 -43 c-1 -73 -47 -133 -115 -150 -22 -6 -25 -10 -14 -19 16 -13
177 -232 177 -241 0 -3 -19 -5 -42 -3 -42 3 -44 5 -128 120 l-85 118 -42 0
-43 0 0 -120 0 -120 -40 0 -40 0 0 293 0 294 -37 12 c-21 7 -42 14 -48 15 -5
2 -153 -46 -328 -107z m-105 -212 c26 -60 55 -128 63 -150 l17 -39 59 144 c32
79 63 148 67 152 5 5 23 8 39 6 l30 -3 -114 -265 c-62 -146 -120 -271 -130
-278 -15 -11 -63 -17 -63 -8 0 2 16 37 35 79 19 42 35 81 35 86 0 6 -36 95
-80 197 -44 102 -80 187 -80 190 0 3 17 4 38 2 l37 -3 47 -110z"/>
<path d="M2550 620 l0 -110 61 0 c78 0 127 22 145 66 40 95 -17 154 -149 154
l-57 0 0 -110z"/>
<path d="M3619 368 c16 -70 57 -108 116 -108 33 0 82 25 94 48 9 16 -2 22 -92
51 -56 19 -107 36 -114 38 -8 3 -9 -5 -4 -29z"/>
<path d="M795 280 c-27 -10 -41 -19 -30 -19 11 0 38 8 60 18 51 25 35 25 -30
1z"/>
</g>
</svg>
